Coordinates
version=1
nRows=18
nColumns=28
inDegrees=yes

Units are S.I. units (second, meters, Newtons, ...)
Angles are in degrees.

endheader
time	pelvis_tilt	pelvis_list	pelvis_rotation	pelvis_tx	pelvis_ty	pelvis_tz	hip_flexion_r	hip_adduction_r	hip_rotation_r	knee_angle_r	ankle_angle_r	subtalar_angle_r	mtp_angle_r	hip_flexion_l	hip_adduction_l	hip_rotation_l	knee_angle_l	socket_flexion	socket_adduction	socket_rotation	socket_tx	socket_ty	socket_tz	foot_flex	lumbar_extension	lumbar_bending	lumbar_rotation
      0.32083333	      2.92891975	     -2.37208848	     -8.11617572	     -0.35532765	      1.02607239	      0.24523202	     17.42242933	      1.33043729	     -1.26817194	    -68.32120467	     -6.38340858	    -23.35851814	     17.12590682	      6.08378977	     -0.18388737	      6.67765178	    -25.88685828	    -11.12259150	      0.00000000	      0.00000000	      0.00000000	      0.00000000	      0.00000000	      0.87137860	    -15.63646652	     -1.01543130	      7.35970907
      0.32500000	      2.96858098	     -2.37499073	     -8.02351629	     -0.35078617	      1.02639897	      0.24527084	     17.96248876	      1.37033724	     -1.35030797	    -68.00672989	     -6.30508006	    -23.32908782	     17.13941192	      5.75115686	     -0.15698181	      6.67208838	    -25.87054908	    -11.14954102	      0.00000000	      0.00000000	      0.00000000	      0.00000000	      0.00000000	      0.92256975	    -15.75476471	     -1.01608811	      7.33278878
      0.32916667	      3.15800480	     -2.51108743	     -7.54949272	     -0.34561744	      1.02707676	      0.24460865	     18.13943162	      1.28715509	     -1.97513743	    -67.49697151	     -5.37238907	    -22.01544941	     17.45326505	      5.16655029	     -0.19102711	      7.15439619	    -25.67904986	    -11.12979463	      0.00000000	      0.00000000	      0.00000000	      0.00000000	      0.00000000	      1.06324515	    -15.96989527	     -0.71340740	      6.57488779
      0.33333333	      3.17157064	     -2.52833774	     -7.46862894	     -0.34071186	      1.02740920	      0.24473921	     18.62564752	      1.32236340	     -2.11912370	    -67.05250545	     -5.17792267	    -21.97640832	     17.48810007	      4.76339978	     -0.19105657	      7.17766284	    -25.50410925	    -11.12174631	      0.00000000	      0.00000000	      0.00000000	      0.00000000	      0.00000000	      1.17986028	    -15.98144879	     -0.69643120	      6.53513642
      0.33750000	      3.20061144	     -2.52581154	     -7.40990773	     -0.33619329	      1.02763715	      0.24484736	     19.15421134	      1.34501576	     -2.21091737	    -66.63932113	     -5.09008408	    -21.96296495	     17.50134087	      4.43110302	     -0.16503229	      7.17768925	    -25.47300401	    -11.14467621	      0.00000000	      0.00000000	      0.00000000	      0.00000000	      0.00000000	      1.23930755	    -16.08692639	     -0.71719297	      6.51443198
      0.34166667	      3.19489566	     -2.57217869	     -7.27311946	     -0.33079594	      1.02801034	      0.24497611	     19.52858072	      1.37699223	     -2.45073942	    -66.00992507	     -4.75446221	    -21.85839095	     17.57754889	      3.95615152	     -0.20283114	      7.26840652	    -25.15920532	    -11.11333766	      0.00000000	      0.00000000	      0.00000000	      0.00000000	      0.00000000	      1.41998521	    -15.97102053	     -0.65287045	      6.41404901
      0.34583333	      3.51326283	     -2.78189766	     -6.71270543	     -0.32596718	      1.02877045	      0.24415856	     19.50881131	      1.31372663	     -3.16462501	    -65.31498355	     -3.95419457	    -20.62086420	     17.94515154	      3.30199918	     -0.31424587	      7.83594785	    -25.06721525	    -11.11336400	      0.00000000	      0.00000000	      0.00000000	      0.00000000	      0.00000000	      1.49889941	    -16.42705959	     -0.25855094	      5.63616525
      0.35000000	      3.51414687	     -2.77517525	     -6.62858400	     -0.32101650	      1.02898082	      0.24432607	     19.94511717	      1.31299790	     -3.31320173	    -64.71199881	     -3.76469131	    -20.58910758	     17.97610169	      2.91058160	     -0.30056496	      7.84749135	    -24.88190626	    -11.10668310	      0.00000000	      0.00000000	      0.00000000	      0.00000000	      0.00000000	      1.62119449	    -16.41810389	     -0.27001117	      5.60019289
      0.35416667	      3.53087398	     -2.75240644	     -6.58696559	     -0.31656520	      1.02907508	      0.24452080	     20.44316766	      1.30582482	     -3.41345277	    -64.16296728	     -3.66806199	    -20.57808547	     17.98551848	      2.59829438	     -0.26409596	      7.84747626	    -24.85416879	    -11.12431131	      0.00000000	      0.00000000	      0.00000000	      0.00000000	      0.00000000	      1.69052135	    -16.52658737	     -0.30847977	      5.57883350
      0.35833333	      3.59315577	     -2.92528387	     -6.26473090	     -0.31123385	      1.02953393	      0.24431354	     20.60455563	      1.37652254	     -3.87279191	    -63.28619444	     -3.10506475	    -20.24686460	     18.12126535	      2.08589059	     -0.42655830	      8.15882403	    -24.58377437	    -11.09059918	      0.00000000	      0.00000000	      0.00000000	      0.00000000	      0.00000000	      1.80631006	    -16.53499901	     -0.04906176	      5.32982499
      0.36250000	      3.62130282	     -2.89166558	     -6.15653175	     -0.30637423	      1.02965507	      0.24445565	     20.97015018	      1.31827607	     -4.05265293	    -62.57019729	     -2.97302778	    -20.15515943	     18.13645765	      1.69634717	     -0.38033013	      8.19082554	    -24.45104223	    -11.09474768	      0.00000000	      0.00000000	      0.00000000	      0.00000000	      0.00000000	      1.96991278	    -16.56002744	     -0.09152595	      5.23709804
      0.36666667	      3.90098089	     -3.08674522	     -5.66099226	     -0.30147690	      1.03028996	      0.24384666	     20.89761012	      1.27262590	     -4.72973730	    -61.64736255	     -2.46164522	    -19.45782372	     18.24723128	      1.05872767	     -0.52703603	      8.67745976	    -24.31911400	    -11.08516180	      0.00000000	      0.00000000	      0.00000000	      0.00000000	      0.00000000	      2.09465859	    -16.93238909	      0.26139750	      4.65750017
      0.37083333	      3.90066918	     -3.02485494	     -5.60085304	     -0.29670959	      1.03030107	      0.24405999	     21.28941132	      1.20630737	     -4.85327658	    -60.89456597	     -2.34553966	    -19.44481122	     18.24280293	      0.71571542	     -0.46115702	      8.65877545	    -24.20770123	    -11.08838923	      0.00000000	      0.00000000	      0.00000000	      0.00000000	      0.00000000	      2.19902444	    -16.95051369	      0.17428043	      4.61698965
      0.37500000	      3.89437028	     -2.98738575	     -5.51108751	     -0.29186347	      1.03032884	      0.24428537	     21.63904549	      1.15688447	     -5.02444024	    -60.06540080	     -2.17361139	    -19.42531519	     18.24179838	      0.35829557	     -0.42881755	      8.69191366	    -24.05756137	    -11.08016644	      0.00000000	      0.00000000	      0.00000000	      0.00000000	      0.00000000	      2.31300769	    -16.93790561	      0.12919901	      4.56660384
      0.37916667	      4.11808872	     -3.20981243	     -5.03321705	     -0.28692701	      1.03084228	      0.24368492	     21.56514637	      1.15115794	     -5.71365787	    -59.01893417	     -1.73957599	    -19.01252324	     18.17296132	     -0.23450884	     -0.62759180	      9.16784776	    -23.90632526	    -11.06399459	      0.00000000	      0.00000000	      0.00000000	      0.00000000	      0.00000000	      2.43318670	    -17.24412887	      0.51523885	      4.08461216
      0.38333333	      4.25140227	     -3.24537691	     -4.80855800	     -0.28213421	      1.03106663	      0.24359882	     21.67905335	      1.09247001	     -6.06128066	    -58.05577661	     -1.47916637	    -18.85628471	     18.02412117	     -0.72163825	     -0.65528729	      9.33241594	    -23.77058606	    -11.05079467	      0.00000000	      0.00000000	      0.00000000	      0.00000000	      0.00000000	      2.54627355	    -17.42272757	      0.59964687	      3.85142668
      0.38750000	      4.23505574	     -3.23669320	     -4.67942195	     -0.27730387	      1.03104537	      0.24373739	     21.96822108	      1.05401937	     -6.29700783	    -57.10184708	     -1.26136808	    -18.85615470	     17.95892058	     -1.06656469	     -0.65767225	      9.42593639	    -23.60760168	    -11.03104210	      0.00000000	      0.00000000	      0.00000000	      0.00000000	      0.00000000	      2.63404818	    -17.42178819	      0.60074105	      3.79222351
      0.39166667	      4.21602728	     -3.17042226	     -4.60060339	     -0.27257698	      1.03091822	      0.24394943	     22.27699613	      0.97880021	     -6.45215695	    -56.14749038	     -1.12512636	    -18.87058604	     17.92174947	     -1.36878749	     -0.59293503	      9.44066756	    -23.54259274	    -11.04481757	      0.00000000	      0.00000000	      0.00000000	      0.00000000	      0.00000000	      2.77146138	    -17.41196633	      0.51696102	      3.75191105
